<?xml version="1.0" encoding="utf-8"?>
<!-- Generator: Adobe Illustrator 26.5.0, SVG Export Plug-In . SVG Version: 6.00 Build 0)  -->
<svg version="1.1" id="Layer_1" xmlns="http://www.w3.org/2000/svg" xmlns:xlink="http://www.w3.org/1999/xlink" x="0px" y="0px"
	 viewBox="0 0 566.34 189.69" style="enable-background:new 0 0 566.34 189.69;" xml:space="preserve">
<style type="text/css">
	.st0{fill:#0075FF;}
	.st1{fill:#333438;}
</style>
<g>
	<g>
		<g>
			<path class="st1" d="M0.55,64.84c0-20.68,15.16-35.84,36.67-35.84c21.51,0,36.26,15.16,36.26,35.84v5.79H22.06
				c1.66,8,7.72,11.58,15.16,11.58c5.93,0,10.34-1.24,12.96-4.96h21.37c-4.41,14.06-17.37,23.44-34.33,23.44
				C15.72,100.68,0.55,85.51,0.55,64.84z M52.25,57.53c-2.34-7.03-7.86-10.06-15.03-10.06c-7.17,0-12.68,3.17-14.75,10.06H52.25z"/>
			<path class="st1" d="M91.68,51.46h41.36v19.99H91.68V51.46z"/>
			<path class="st1" d="M153.72,8.73h35.43c24.54,0,35.43,13.37,35.43,31.71s-10.89,31.85-35.43,31.85h-13.1v26.61h-22.33V8.73z
				 M189.56,51.6c9.51,0,12.41-4.69,12.41-11.17c0-6.34-2.89-11.03-12.41-11.03h-13.51v22.2H189.56z"/>
			<path class="st1" d="M319.43,60.15c0-21.23,12.41-31.16,30.6-31.16s30.47,9.79,30.6,31.29v0.41h-20.68v-0.55
				c0-9.1-4.14-11.86-9.93-11.86c-5.79,0-9.93,2.76-9.93,11.86v38.74h-20.68V60.15z"/>
			<path class="st1" d="M391.81,72V6.66h20.68v24.13h32.26v18.61h-32.26V72c0,7.17,3.31,9.37,7.86,9.37s7.86-2.21,7.86-9.37v-2.07
				h20.68V72c0,19.44-11.58,28.68-28.54,28.68C403.39,100.68,391.81,91.44,391.81,72z"/>
			<path class="st1" d="M458.81,65.66c0-21.92,15.16-36.67,36.81-36.67c21.37,0,36.26,14.2,36.26,36.53v33.36h-19.02v-11.3
				c-3.59,8.41-11.31,13.1-21.09,13.1C476.6,100.68,458.81,89.37,458.81,65.66z M511.2,64.84c0-9.79-6.34-16.54-15.72-16.54
				s-15.72,6.75-15.72,16.54c0,9.79,6.34,16.54,15.72,16.54S511.2,74.62,511.2,64.84z"/>
			<path class="st1" d="M544.84,1.01h20.68v97.88h-20.68V1.01z"/>
		</g>
		<g>
			<path class="st1" d="M476.13,138.97c-1.34-0.07-2.46,0.92-2.53,2.26c0,0.07,0,0.14,0,0.17v2.12c-0.45-0.45-0.89-0.86-1.37-1.27
				c-1.75-1.27-3.7-2.19-5.79-2.74c-1.99-0.51-4.07-0.68-6.13-0.45c-2.05,0.24-4.01,0.86-5.79,1.88c-1.85,1.03-3.49,2.43-4.79,4.11
				l-8.22,9.79c-0.82,0.96-0.68,2.43,0.27,3.25s2.43,0.68,3.25-0.27l0,0l8.29-9.89c0.92-1.2,2.12-2.23,3.46-2.94
				c1.3-0.72,2.7-1.16,4.14-1.37c2.98-0.41,5.96,0.45,8.29,2.29c1.2,0.92,2.19,2.09,2.91,3.42c0.72,1.27,1.16,2.67,1.37,4.14
				c0.21,1.44,0.1,2.91-0.27,4.28c-0.41,1.47-1.1,2.81-2.02,4.01c-0.92,1.2-2.09,2.19-3.42,2.91c-2.6,1.4-5.65,1.78-8.49,0.99
				c-0.92-0.24-1.81-0.62-2.64-1.1c-0.99-0.58-2.26-0.34-2.94,0.58c-0.38,0.51-0.55,1.16-0.41,1.81c0.1,0.62,0.48,1.13,0.99,1.44
				c1.23,0.75,2.57,1.3,3.97,1.68c1.99,0.51,4.04,0.65,6.06,0.41c3.53-0.41,6.81-2.02,9.28-4.55v7.81c0,4.42-2.84,8.29-6.92,9.38
				c-1.51,0.38-3.08,0.48-4.62,0.27c-1.61-0.21-3.15-0.75-4.55-1.51c-0.34-0.17-0.65-0.38-0.96-0.58c-0.24-0.21-0.51-0.38-0.72-0.62
				l0,0c-0.96-0.92-2.5-0.86-3.42,0.1c-0.72,0.79-0.86,1.95-0.34,2.88l0,0c0.21,0.34,0.45,0.65,0.75,0.92
				c0.1,0.1,0.21,0.21,0.34,0.31l0,0l0,0l0.14,0.1l0.07,0.07l0.14,0.1c0.51,0.38,1.06,0.72,1.61,1.03c1.95,1.1,4.07,1.78,6.3,2.05
				c0.65,0.07,1.34,0.1,2.02,0.1c0.72,0,1.47-0.03,2.19-0.14c0.82-0.07,1.61-0.24,2.4-0.45l0.31-0.07l0,0
				c5.96-1.85,10.1-7.63,10.1-14.14v-32.08C478.46,140.17,477.43,139.08,476.13,138.97z"/>
			<path class="st1" d="M458.6,152.98c-0.07-0.62-0.38-1.2-0.89-1.57c-0.96-0.75-2.36-0.62-3.15,0.34l-8.29,9.89
				c-0.92,1.2-2.12,2.23-3.46,2.94c-1.3,0.72-2.7,1.2-4.14,1.4c-2.94,0.38-5.96-0.45-8.29-2.29c-1.2-0.92-2.19-2.09-2.91-3.42
				c-0.68-1.3-1.16-2.67-1.34-4.14c-0.41-2.94,0.45-5.96,2.29-8.29c0.92-1.2,2.09-2.19,3.42-2.91c2.6-1.4,5.65-1.78,8.49-0.99
				c0.92,0.24,1.81,0.62,2.64,1.1c0.99,0.58,2.26,0.34,2.94-0.55c0.38-0.51,0.55-1.16,0.41-1.81c-0.1-0.62-0.48-1.13-0.99-1.44
				c-1.23-0.75-2.57-1.3-3.97-1.68c-1.99-0.51-4.04-0.68-6.09-0.45c-2.02,0.24-3.97,0.86-5.75,1.85c-1.85,1.03-3.46,2.43-4.76,4.11
				c-1.34,1.64-2.29,3.56-2.81,5.61c-0.51,1.99-0.65,4.04-0.41,6.09c0.24,2.02,0.86,4.01,1.85,5.79c0.99,1.81,2.36,3.42,3.97,4.76
				c1.75,1.27,3.7,2.19,5.79,2.74c1.4,0.38,2.84,0.55,4.28,0.55c0.62,0,1.23-0.03,1.85-0.1c2.02-0.24,4.01-0.89,5.79-1.88
				c1.85-1.03,3.46-2.43,4.79-4.11l8.22-9.79C458.5,154.24,458.67,153.63,458.6,152.98z"/>
			<path class="st1" d="M346.79,138.97c-3.56,0-6.61,1.44-8.25,3.9c-1.71-2.57-4.55-3.9-8.29-3.9c-6.47,0-10.82,4.59-10.82,11.4
				v16.74c-0.03,1.4,1.06,2.6,2.46,2.64c0.03,0,0.07,0,0.1,0c1.44-0.03,2.6-1.2,2.57-2.64v-16.81c0-4.01,2.16-6.5,5.65-6.5
				s5.72,2.5,5.72,6.5v16.81c-0.03,1.4,1.06,2.6,2.46,2.64c0.03,0,0.07,0,0.1,0c1.44,0,2.6-1.2,2.57-2.64v-16.81
				c0-4.01,2.16-6.5,5.65-6.5s5.72,2.5,5.72,6.5v16.81c-0.03,1.4,1.06,2.6,2.46,2.64c0.03,0,0.07,0,0.1,0
				c1.44-0.03,2.6-1.2,2.57-2.64v-16.74C357.67,143.56,353.29,138.97,346.79,138.97z"/>
			<path class="st1" d="M367.4,129.59c-1.71-0.03-3.12,1.37-3.15,3.08c0,0.03,0,0.03,0,0.07c0,1.75,1.4,3.15,3.15,3.15
				c1.75-0.03,3.12-1.44,3.15-3.15C370.55,131,369.14,129.59,367.4,129.59z"/>
			<path class="st1" d="M367.4,139.11c-1.4,0-2.57,1.13-2.57,2.53c0,0.03,0,0.03,0,0.07v25.44c-0.03,1.4,1.06,2.6,2.46,2.64
				c0.03,0,0.07,0,0.1,0c1.44,0,2.6-1.2,2.57-2.64v-25.44C369.96,140.24,368.83,139.11,367.4,139.11z"/>
			<path class="st1" d="M379.69,128.22c-1.4,0-2.57,1.13-2.57,2.53c0,0.03,0,0.03,0,0.07v36.32c-0.03,1.4,1.06,2.6,2.46,2.64
				c0.03,0,0.07,0,0.1,0c1.44-0.03,2.6-1.2,2.57-2.64v-36.32C382.29,129.39,381.12,128.22,379.69,128.22z"/>
			<path class="st1" d="M389.07,153.94l9.11-10.85c0.38-0.45,0.58-0.99,0.58-1.57c0-1.34-1.06-2.4-2.4-2.4c-0.03,0-0.03,0-0.07,0
				c-0.72,0-1.4,0.34-1.81,0.92l-10.34,12.29c-0.45,0.51-0.68,1.16-0.72,1.85c0.03,0.68,0.27,1.34,0.68,1.88l10.75,12.74
				c0.45,0.62,1.2,0.99,1.95,0.99c1.4,0.03,2.6-1.06,2.64-2.5c0.03-0.65-0.21-1.3-0.65-1.78L389.07,153.94z"/>
			<path class="st1" d="M415.63,138.97c-7.22,0-12.09,5.07-12.09,12.63v15.51c-0.03,1.4,1.06,2.6,2.46,2.64c0.03,0,0.07,0,0.1,0
				c1.44,0,2.6-1.2,2.57-2.64v-15.51c0-4.9,2.57-7.84,6.92-7.84c1.3-0.03,2.36-1.1,2.4-2.4
				C418.03,140.07,416.97,139.01,415.63,138.97L415.63,138.97z"/>
			<path class="st1" d="M496.36,138.97c-7.22,0-12.09,5.07-12.09,12.63v15.51c-0.03,1.4,1.06,2.6,2.46,2.64c0.03,0,0.07,0,0.1,0
				c1.44,0,2.6-1.2,2.57-2.64v-15.51c0-4.9,2.57-7.84,6.92-7.84c1.3-0.03,2.36-1.1,2.4-2.4
				C498.79,140.07,497.73,139.01,496.36,138.97C496.4,138.97,496.4,138.97,496.36,138.97z"/>
			<path class="st1" d="M526.42,139.11c-1.4,0-2.57,1.13-2.57,2.53c0,0.03,0,0.03,0,0.07v14.82c0,5.2-3.01,8.56-7.7,8.56
				c-4.69,0-7.67-3.36-7.67-8.56v-14.82c0-1.44-1.16-2.57-2.57-2.57s-2.57,1.13-2.57,2.53c0,0.03,0,0.03,0,0.07v14.65
				c0,7.98,5.27,13.56,12.8,13.56c7.53,0,12.87-5.58,12.87-13.56v-14.65C528.99,140.24,527.82,139.11,526.42,139.11z"/>
			<path class="st1" d="M550.42,138.97c-3.87-0.03-7.6,1.47-10.41,4.14v-1.47c0-1.44-1.16-2.57-2.57-2.57
				c-1.4,0-2.57,1.13-2.57,2.53c0,0.03,0,0.03,0,0.07v44.03c-0.03,1.4,1.06,2.6,2.46,2.64c0.03,0,0.07,0,0.1,0
				c1.44,0,2.6-1.2,2.57-2.64v-19.96c2.77,2.7,6.54,4.21,10.41,4.14c8.46,0,15.1-6.78,15.1-15.44
				C565.52,145.79,558.88,138.97,550.42,138.97z M550.15,165.06c-5.55,0-9.89-4.38-10.13-10.17V154c0.24-5.82,4.59-10.2,10.13-10.2
				c5.72,0,10.17,4.69,10.17,10.65S555.83,165.06,550.15,165.06z"/>
		</g>
		<g>
			<g>
				<path class="st0" d="M310.59,69.25c0-22.29-18.07-40.35-40.35-40.35c-22.29,0-40.35,18.07-40.35,40.35
					c0,9.99,3.63,19.12,9.64,26.16v-0.01c1.79,2.17,4.49,3.55,7.52,3.55c5.38,0,9.73-4.36,9.73-9.73c0-2.68-1.08-5.1-2.83-6.86
					v-0.01c-2.89-3.59-4.62-8.14-4.62-13.11c0-11.55,9.36-20.91,20.91-20.91c11.55,0,20.91,9.36,20.91,20.91
					c0,5.04-1.78,9.66-4.76,13.27c-1.66,1.75-2.68,4.11-2.68,6.71c0,5.38,4.36,9.73,9.73,9.73c3.05,0,5.77-1.41,7.56-3.6v0
					C306.98,88.33,310.59,79.21,310.59,69.25z"/>
			</g>
			<path class="st0" d="M266.26,84.63c1.58-3.9,6.36-3.9,7.94,0l3.09,7.63l4.11,10.13c1.37,3.39-0.75,7.29-3.97,7.29h-7.2h-7.2
				c-3.22,0-5.34-3.9-3.97-7.29l4.11-10.13L266.26,84.63z"/>
		</g>
	</g>
</g>
</svg>
